<?xml version="1.0" encoding="UTF-8"?>
<svg xmlns="http://www.w3.org/2000/svg" xmlns:xlink="http://www.w3.org/1999/xlink" width="48px" height="48px" viewBox="0 0 48 48" version="1.1">
<g id="surface1">
<path style=" stroke:none;fill-rule:nonzero;fill:rgb(0%,0%,0%);fill-opacity:1;" d="M 17.671875 1.152344 C 6.738281 4.601562 0.492188 12.902344 0.492188 23.835938 C 0.492188 41.097656 18.492188 52.519531 33.863281 44.957031 C 48.328125 37.890625 51.863281 18.984375 40.847656 7.5625 C 37.234375 3.699219 30.410156 0.328125 29.507812 1.808594 C 28.4375 3.453125 28.601562 3.699219 31.726562 4.847656 C 44.628906 9.535156 48.492188 27.699219 38.792969 38.136719 C 31.152344 46.273438 16.519531 46.273438 8.875 38.136719 C 1.5625 30.246094 1.5625 17.425781 8.875 9.535156 C 11.507812 6.738281 18.410156 3.289062 21.617188 3.289062 C 23.261719 3.289062 23.835938 2.875 23.835938 1.644531 C 23.835938 -0.246094 22.4375 -0.328125 17.671875 1.152344 Z M 17.671875 1.152344 "/>
<path style=" stroke:none;fill-rule:nonzero;fill:rgb(0%,0%,0%);fill-opacity:1;" d="M 13.726562 12.984375 C 12.492188 14.21875 11.507812 16.191406 11.507812 17.34375 C 11.507812 22.027344 23.589844 35.425781 28.847656 36.574219 C 31.070312 37.070312 31.808594 36.738281 34.027344 34.601562 L 36.574219 32.054688 L 33.863281 29.425781 C 31.808594 27.371094 31.070312 26.957031 30.246094 27.78125 C 28.273438 29.753906 25.644531 28.847656 22.273438 24.984375 C 18.65625 20.875 18.328125 19.808594 19.890625 17.34375 C 20.628906 16.109375 20.464844 15.371094 18.820312 13.316406 C 17.753906 11.917969 16.601562 10.765625 16.355469 10.765625 C 16.109375 10.683594 14.957031 11.753906 13.726562 12.984375 Z M 13.726562 12.984375 "/>
</g>
</svg>
