<?xml version="1.0" encoding="UTF-8"?>
<svg xmlns="http://www.w3.org/2000/svg" xmlns:xlink="http://www.w3.org/1999/xlink" width="16px" height="px" viewBox="0 0 16 16" version="1.1">
<g id="surface1">
<path style=" stroke:none;fill-rule:nonzero;fill:rgb(0%,0%,0%);fill-opacity:1;" d="M 5.890625 0.382812 C 2.246094 1.535156 0.164062 4.300781 0.164062 7.945312 C 0.164062 13.699219 6.164062 17.507812 11.289062 14.984375 C 16.109375 12.628906 17.289062 6.328125 13.617188 2.519531 C 12.410156 1.234375 10.136719 0.109375 9.835938 0.601562 C 9.480469 1.152344 9.535156 1.234375 10.574219 1.617188 C 14.875 3.179688 16.164062 9.234375 12.929688 12.710938 C 10.382812 15.425781 5.507812 15.425781 2.957031 12.710938 C 0.519531 10.082031 0.519531 5.808594 2.957031 3.179688 C 3.835938 2.246094 6.136719 1.097656 7.207031 1.097656 C 7.753906 1.097656 7.945312 0.957031 7.945312 0.546875 C 7.945312 -0.0820312 7.480469 -0.109375 5.890625 0.382812 Z M 5.890625 0.382812 "/>
<path style=" stroke:none;fill-rule:nonzero;fill:rgb(0%,0%,0%);fill-opacity:1;" d="M 4.574219 4.328125 C 4.164062 4.738281 3.835938 5.398438 3.835938 5.78125 C 3.835938 7.34375 7.863281 11.808594 9.617188 12.191406 C 10.355469 12.355469 10.601562 12.246094 11.34375 11.535156 L 12.191406 10.683594 L 11.289062 9.808594 C 10.601562 9.125 10.355469 8.984375 10.082031 9.261719 C 9.425781 9.917969 8.546875 9.617188 7.425781 8.328125 C 6.21875 6.957031 6.109375 6.601562 6.628906 5.78125 C 6.875 5.371094 6.820312 5.125 6.273438 4.4375 C 5.917969 3.972656 5.535156 3.589844 5.453125 3.589844 C 5.371094 3.5625 4.984375 3.917969 4.574219 4.328125 Z M 4.574219 4.328125 "/>
</g>
</svg>
