<?xml version="1.0" encoding="UTF-8"?>
<svg xmlns="http://www.w3.org/2000/svg" xmlns:xlink="http://www.w3.org/1999/xlink" width="32px" height="32px" viewBox="0 0 32 32" version="1.1">
<g id="surface1">
<path style=" stroke:none;fill-rule:nonzero;fill:rgb(0%,0%,0%);fill-opacity:1;" d="M 11.78125 0.769531 C 4.492188 3.066406 0.328125 8.601562 0.328125 15.890625 C 0.328125 27.398438 12.328125 35.011719 22.574219 29.972656 C 32.21875 25.261719 34.574219 12.65625 27.230469 5.042969 C 24.824219 2.464844 20.273438 0.21875 19.671875 1.207031 C 18.957031 2.300781 19.066406 2.464844 21.152344 3.230469 C 29.753906 6.355469 32.328125 18.464844 25.863281 25.425781 C 20.769531 30.847656 11.011719 30.847656 5.917969 25.425781 C 1.042969 20.164062 1.042969 11.617188 5.917969 6.355469 C 7.671875 4.492188 12.273438 2.191406 14.410156 2.191406 C 15.507812 2.191406 15.890625 1.917969 15.890625 1.097656 C 15.890625 -0.164062 14.957031 -0.21875 11.78125 0.769531 Z M 11.78125 0.769531 "/>
<path style=" stroke:none;fill-rule:nonzero;fill:rgb(0%,0%,0%);fill-opacity:1;" d="M 9.152344 8.65625 C 8.328125 9.480469 7.671875 10.792969 7.671875 11.5625 C 7.671875 14.683594 15.726562 23.617188 19.230469 24.382812 C 20.714844 24.714844 21.207031 24.492188 22.683594 23.066406 L 24.382812 21.371094 L 22.574219 19.617188 C 21.207031 18.246094 20.714844 17.972656 20.164062 18.519531 C 18.847656 19.835938 17.097656 19.230469 14.847656 16.65625 C 12.4375 13.917969 12.21875 13.207031 13.261719 11.5625 C 13.753906 10.738281 13.644531 10.246094 12.546875 8.878906 C 11.835938 7.945312 11.066406 7.175781 10.902344 7.175781 C 10.738281 7.121094 9.972656 7.835938 9.152344 8.65625 Z M 9.152344 8.65625 "/>
</g>
</svg>
