<?xml version="1.0" encoding="UTF-8"?>
<svg xmlns="http://www.w3.org/2000/svg" xmlns:xlink="http://www.w3.org/1999/xlink" width="16px" height="px" viewBox="0 0 16 16" version="1.1">
<g id="surface1">
<path style=" stroke:none;fill-rule:nonzero;fill:rgb(9.803922%,46.27451%,82.352942%);fill-opacity:1;" d="M 14 12.332031 C 14 13.253906 13.253906 14 12.332031 14 L 3.667969 14 C 2.746094 14 2 13.253906 2 12.332031 L 2 3.667969 C 2 2.746094 2.746094 2 3.667969 2 L 12.332031 2 C 13.253906 2 14 2.746094 14 3.667969 Z M 14 12.332031 "/>
<path style=" stroke:none;fill-rule:nonzero;fill:rgb(100%,100%,100%);fill-opacity:1;" d="M 11.980469 6.011719 C 11.996094 5.964844 12 5.917969 12 5.875 C 11.996094 5.753906 11.910156 5.667969 11.714844 5.667969 L 10.84375 5.667969 C 10.625 5.667969 10.523438 5.800781 10.460938 5.933594 C 10.460938 5.933594 9.917969 7.054688 9.292969 7.792969 C 9.089844 8.003906 8.984375 8 8.875 8 C 8.816406 8 8.667969 7.929688 8.667969 7.734375 L 8.667969 6.003906 C 8.667969 5.773438 8.609375 5.667969 8.421875 5.667969 L 6.871094 5.667969 C 6.738281 5.667969 6.667969 5.773438 6.667969 5.878906 C 6.667969 6.101562 6.964844 6.15625 7 6.777344 L 7 7.988281 C 7 8.28125 6.949219 8.332031 6.839844 8.332031 C 6.542969 8.332031 5.957031 7.332031 5.566406 6.023438 C 5.484375 5.765625 5.398438 5.667969 5.175781 5.667969 L 4.296875 5.667969 C 4.042969 5.667969 4 5.792969 4 5.925781 C 4 6.164062 4.199219 7.464844 5.292969 8.957031 C 6.082031 10.042969 7.125 10.667969 8.050781 10.667969 C 8.609375 10.667969 8.667969 10.523438 8.667969 10.300781 L 8.667969 9.3125 C 8.667969 9.042969 8.726562 9 8.90625 9 C 9.03125 9 9.292969 9.082031 9.792969 9.667969 C 10.367188 10.339844 10.472656 10.667969 10.804688 10.667969 L 11.675781 10.667969 C 11.878906 10.667969 11.996094 10.582031 12 10.417969 C 12 10.375 11.996094 10.328125 11.980469 10.273438 C 11.917969 10.082031 11.621094 9.613281 11.25 9.167969 C 11.046875 8.917969 10.84375 8.671875 10.75 8.539062 C 10.6875 8.453125 10.664062 8.390625 10.667969 8.332031 C 10.667969 8.273438 10.703125 8.214844 10.75 8.132812 C 10.742188 8.132812 11.867188 6.546875 11.980469 6.011719 Z M 11.980469 6.011719 "/>
</g>
</svg>
