<?xml version="1.0" encoding="UTF-8"?>
<svg xmlns="http://www.w3.org/2000/svg" xmlns:xlink="http://www.w3.org/1999/xlink" width="32px" height="32px" viewBox="0 0 32 32" version="1.1">
<g id="surface1">
<path style=" stroke:none;fill-rule:nonzero;fill:rgb(9.803922%,46.27451%,82.352942%);fill-opacity:1;" d="M 28 24.667969 C 28 26.507812 26.507812 28 24.667969 28 L 7.332031 28 C 5.492188 28 4 26.507812 4 24.667969 L 4 7.332031 C 4 5.492188 5.492188 4 7.332031 4 L 24.667969 4 C 26.507812 4 28 5.492188 28 7.332031 Z M 28 24.667969 "/>
<path style=" stroke:none;fill-rule:nonzero;fill:rgb(100%,100%,100%);fill-opacity:1;" d="M 23.957031 12.027344 C 23.988281 11.925781 24.003906 11.832031 24 11.75 C 23.988281 11.507812 23.824219 11.332031 23.433594 11.332031 L 21.6875 11.332031 C 21.246094 11.332031 21.042969 11.601562 20.925781 11.867188 C 20.925781 11.867188 19.835938 14.105469 18.582031 15.582031 C 18.175781 16.011719 17.96875 16 17.75 16 C 17.632812 16 17.332031 15.855469 17.332031 15.464844 L 17.332031 12.007812 C 17.332031 11.546875 17.21875 11.332031 16.84375 11.332031 L 13.746094 11.332031 C 13.476562 11.332031 13.332031 11.546875 13.332031 11.761719 C 13.332031 12.207031 13.933594 12.3125 14 13.558594 L 14 15.972656 C 14 16.558594 13.898438 16.667969 13.679688 16.667969 C 13.085938 16.667969 11.917969 14.667969 11.132812 12.046875 C 10.964844 11.53125 10.796875 11.332031 10.355469 11.332031 L 8.59375 11.332031 C 8.085938 11.332031 8 11.582031 8 11.847656 C 8 12.328125 8.398438 14.929688 10.582031 17.917969 C 12.167969 20.082031 14.253906 21.332031 16.097656 21.332031 C 17.21875 21.332031 17.332031 21.046875 17.332031 20.605469 L 17.332031 18.621094 C 17.332031 18.089844 17.457031 18 17.8125 18 C 18.066406 18 18.582031 18.167969 19.582031 19.332031 C 20.738281 20.679688 20.945312 21.332031 21.605469 21.332031 L 23.351562 21.332031 C 23.757812 21.332031 23.992188 21.164062 24 20.832031 C 24.003906 20.75 23.988281 20.65625 23.960938 20.550781 C 23.832031 20.167969 23.238281 19.226562 22.5 18.332031 C 22.089844 17.839844 21.683594 17.347656 21.5 17.082031 C 21.375 16.90625 21.328125 16.785156 21.332031 16.667969 C 21.339844 16.542969 21.402344 16.425781 21.5 16.261719 C 21.480469 16.261719 23.738281 13.09375 23.957031 12.027344 Z M 23.957031 12.027344 "/>
</g>
</svg>
